HIERARCHY
ROOT ui
{
	 OFFSET 0 0 0
	 CHANNELS 3 XPosition YPosition Z Position
	 EndSite
	 {
	 OFFSET 0 -1 0
	 }
}
ROOT li
{
	 OFFSET 0 0 0
	 CHANNELS 3 XPosition YPosition Z Position
	 EndSite
	 {
	 OFFSET 0 -1 0
	 }
}
ROOT ul
{
	 OFFSET 0 0 0
	 CHANNELS 3 XPosition YPosition Z Position
	 EndSite
	 {
	 OFFSET 0 -1 0
	 }
}
ROOT ll
{
	 OFFSET 0 0 0
	 CHANNELS 3 XPosition YPosition Z Position
	 EndSite
	 {
	 OFFSET 0 -1 0
	 }
}
ROOT tt
{
	 OFFSET 0 0 0
	 CHANNELS 3 XPosition YPosition Z Position
	 EndSite
	 {
	 OFFSET 0 -1 0
	 }
}
ROOT tb
{
	 OFFSET 0 0 0
	 CHANNELS 3 XPosition YPosition Z Position
	 EndSite
	 {
	 OFFSET 0 -1 0
	 }
}
ROOT td
{
	 OFFSET 0 0 0
	 CHANNELS 3 XPosition YPosition Z Position
	 EndSite
	 {
	 OFFSET 0 -1 0
	 }
}
ROOT v
{
	 OFFSET 0 0 0
	 CHANNELS 3 XPosition YPosition Z Position
	 EndSite
	 {
	 OFFSET 0 -1 0
	 }
}
ROOT bn
{
	 OFFSET 0 0 0
	 CHANNELS 3 XPosition YPosition Z Position
	 EndSite
	 {
	 OFFSET 0 -1 0
	 }
}
MOTION
Frames: 16
Frame Time: 0.002
0.016016807556152344	0.0012546800374984741	0		0.4750316162109375	-2.368265869140625	0		-0.9167117309570313	0.36286700439453123	0		-0.6293861694335937	-2.49468310546875	0		1.6982958984375	-0.27964895629882813	0		3.375676513671875	-0.32942926025390623	0		4.66353857421875	-0.6303353881835938	0		5.975658203125	0.4915520324707031	0		-0.06549285888671875	6.001646484375	0		
-0.017129114151000976	-0.004449703216552734	0		0.4538206787109375	-2.37917724609375	0		-0.9167603149414062	0.36256622314453124	0		-0.5866768188476562	-2.510740966796875	0		1.723126220703125	-0.2873638916015625	0		3.380492919921875	-0.33777117919921873	0		4.6675888671875	-0.625647705078125	0		5.97976708984375	0.5002532348632812	0		-0.06560224151611328	6.00135498046875	0		
0.015934961318969727	7.263839840888977E-4	0		0.46467694091796874	-2.38560888671875	0		-0.9167977294921875	0.3623280029296875	0		-0.6565593872070312	-2.50173876953125	0		1.69879150390625	-0.3041719665527344	0		3.405221435546875	-0.35144790649414065	0		4.6593583984375	-0.6367385864257813	0		5.98871044921875	0.49886016845703124	0		-0.0636792221069336	5.99908251953125	0		
-0.007016808032989502	0.004948482990264892	0		0.44175607299804687	-2.378391357421875	0		-0.9026099853515624	0.3739009399414063	0		-0.605741455078125	-2.50982177734375	0		1.724651611328125	-0.31083364868164065	0		3.39038916015625	-0.340400634765625	0		4.6795712890625	-0.6233246459960937	0		5.98384912109375	0.5077060852050781	0		-0.06561363220214844	6.0009326171875	0		
0.01896630859375	0.004352520942687988	0		0.4935652770996094	-2.386456787109375	0		-0.90261572265625	0.37378396606445313	0		-0.6207286987304688	-2.5056787109375	0		1.7305252685546875	-0.31710635375976565	0		3.37696337890625	-0.36336483764648436	0		4.67060107421875	-0.6203886108398438	0		5.98384619140625	0.5074578552246094	0		-0.06649418640136719	6.0018173828125	0		
-0.010080085754394532	0.0017835710048675537	0		0.4894120788574219	-2.391483642578125	0		-0.9076732788085937	0.36981402587890627	0		-0.5889265747070312	-2.513314453125	0		1.7403035888671874	-0.329416015625	0		3.413789306640625	-0.37320172119140627	0		4.67815771484375	-0.6447434692382813	0		5.9877197265625	0.49913467407226564	0		-0.10038886260986328	5.99833984375	0		
0.015915867805480956	2.820590138435364E-4	0		0.48730804443359377	-2.393503662109375	0		-0.90764208984375	0.36980844116210937	0		-0.626975830078125	-2.511654052734375	0		1.7403094482421875	-0.3295174255371094	0		3.415365478515625	-0.39739556884765626	0		4.68225830078125	-0.6390234985351563	0		5.9928974609375	0.5067890930175781	0		-0.06608798217773437	6.0016982421875	0		
-0.010029204368591308	0.0017506699562072753	0		0.46029638671875	-2.390037841796875	0		-0.9025226440429688	0.37376205444335936	0		-0.5802545776367187	-2.523460693359375	0		1.7524146728515626	-0.3808114013671875	0		3.413810546875	-0.373505126953125	0		4.68537060546875	-0.6332738037109376	0		6.00095068359375	0.5063942565917968	0		-0.06678011322021485	6.0027236328125	0		
0.01599538230895996	3.2965099811553956E-4	0		0.4451597595214844	-2.393745849609375	0		-0.89838720703125	0.37777703857421874	0		-0.6501915893554687	-2.515135498046875	0		1.7675482177734374	-0.3751204528808594	0		3.4093740234375	-0.3995477294921875	0		4.70015185546875	-0.6467196044921875	0		6.00418212890625	0.5150972900390625	0		0.06596156311035156	6.02440185546875	0		
-0.009924191474914551	0.0018758970499038697	0		0.48914303588867186	-2.39147998046875	0		-0.90830810546875	0.3780823974609375	0		-0.5803984375	-2.523279296875	0		1.76631787109375	-0.3901100158691406	0		3.444478271484375	-0.3962709045410156	0		4.691232421875	-0.643717529296875	0		5.9952861328125	0.5160333251953125	0		0.06632630920410157	6.02447802734375	0		
0.0161207160949707	5.193780064582825E-4	0		0.43314654541015624	-2.387385498046875	0		-0.9082210083007812	0.37824197387695313	0		-0.6204945678710938	-2.524415771484375	0		1.758419677734375	-0.3869484558105469	0		3.42116748046875	-0.4159241638183594	0		4.7002099609375	-0.6470164184570313	0		5.99538037109375	0.5158270874023437	0		-0.06568055725097656	6.00396923828125	0		
-0.009784652709960937	0.002126887083053589	0		0.48495361328125	-2.39520947265625	0		-0.9081281127929688	0.3784299621582031	0		-0.5995272216796875	-2.52262353515625	0		1.7922845458984376	-0.3975189208984375	0		3.4311611328125	-0.41915249633789065	0		4.7060830078125	-0.6562411499023437	0		5.99548095703125	0.5156387329101563	0		-0.09838404846191406	5.998708984375	0		
-0.013782832145690918	-0.0016385769844055175	0		0.4330298461914063	-2.3871337890625	0		-0.9021070556640625	0.37453298950195313	0		-0.6246982421875	-2.52797509765625	0		1.78826416015625	-0.40138433837890625	0		3.460043701171875	-0.4287064514160156	0		4.71331884765625	-0.6454701538085937	0		6.0093994140625	0.5052147216796875	0		-0.0619473648071289	6.0002216796875	0		
0.003249743938446045	-0.003768441915512085	0		0.49979458618164063	-2.39719677734375	0		-0.8979423217773438	0.3786878356933594	0		-0.6206943969726563	-2.523835693359375	0		1.78344189453125	-0.39421539306640624	0		3.44429443359375	-0.4174307250976563	0		4.718517578125	-0.6366455688476562	0		6.000828125	0.5232206420898438	0		-0.06350621795654297	6.002439453125	0		
-0.0095701265335083	0.00265869402885437	0		0.4369997253417969	-2.381885498046875	0		-0.9027793579101563	0.3830180358886719	0		-0.59769287109375	-2.52003125	0		1.80372314453125	-0.38148760986328123	0		3.430923095703125	-0.44018463134765623	0		4.72233251953125	-0.6487802734375	0		6.0047783203125	0.5150159912109376	0		0.06832099151611327	6.025240234375	0		
0.016472528457641602	0.0013832700252532958	0		0.4867514953613281	-2.39262158203125	0		-0.902694580078125	0.383263916015625	0		-0.6377867431640625	-2.52106884765625	0		1.7886614990234375	-0.3871050109863281	0		3.45688818359375	-0.4446358642578125	0		4.73228955078125	-0.6530050048828125	0		5.999724609375	0.5070007019042969	0		0.054459457397460935	6.0126943359375	0		
